<svg xmlns="http://www.w3.org/2000/svg" width="512pt" height="512pt" viewBox="0 0 512 512"><path d="M213.5 43.8c16.5-.9 33-1.1 49.5-.9 26.4.3 52.9 1.6 78.8 6.6 26.5 4.9 53 14.5 73.6 32.2 17.6 14.5 29.3 35 36.7 56.2 9.4 28 12.2 57.7 13.6 87.1 1 28.7.9 57.4-1.6 86-1.9 20.8-4.9 41.6-11.6 61.4-6.6 20-17.1 39-32.4 53.8-14 13.4-31.4 23-49.8 29-12 4.4-24.8 6.6-37.3 9-28.8 4.3-58 5.2-87 5-31.5-.3-63.2-2-94-9.2a140.6 140.6 0 0 1-66.7-34.3 138.3 138.3 0 0 1-35-64c-6.8-25-9-51-10-76.7-1-28-.8-56 1.5-83.9 2-21.1 5-42.3 11.9-62.4 6-17.7 15-34.6 27.7-48.3 20.5-22 49.4-34.3 78.5-40 17.7-3.9 35.7-5.5 53.6-6.6m30.8 41.6c-23.5.2-47.1 1.3-70.3 5.5-19.4 3.8-39.2 9.7-54.8 22.4a87.7 87.7 0 0 0-26.5 43.4A299.9 299.9 0 0 0 83 228c-1 26.3-.8 52.7 1.4 79C86.2 327.4 89.2 348 97 367c6 14.4 15.3 28 28.7 36.4 17 11.4 37.4 16 57.3 19 37.4 4.8 75.3 5.2 112.9 2.8 13-1.2 26.2-2 39-4.8a113 113 0 0 0 52.5-22.1c15-12.8 23.2-31.4 27.9-50 6.3-25.6 7.6-52 8.3-78.2.4-30-.1-60.3-5-90-3.4-20.3-9.2-41-22.3-57.3a75.5 75.5 0 0 0-26-20A179.7 179.7 0 0 0 313 88.1a582 582 0 0 0-68.7-2.7Z"/><path d="M237 148c4.6-6.2 12.8-9.1 20.2-7.5 6.9 1.3 12.6 6.8 14.8 13.4 7.4 20.4 15 40.7 22.1 61 17.7 6.1 35.2 12.8 52.8 19 4.4 1.8 9 3 13.1 5.4a19.9 19.9 0 0 1-4.2 35.4c-20.5 7.7-41.2 14.9-61.7 22.6-6.2 17.4-12.6 34.7-18.9 52-2.2 5.3-3.3 11.3-7.1 15.8a19.8 19.8 0 0 1-19.7 6.3c-5.2-1.1-9.7-4.7-12.5-9.2-2.2-4.1-3.5-8.6-5.1-13-6.4-17.3-12.6-34.8-19-52l-55-20c-5.6-1.9-11.6-3.8-15.3-8.7-8.3-9.4-4.3-25.8 7.2-30.6 21-7.9 42-15.4 63-23l18.8-51.5c2.1-5.1 3.3-10.8 6.6-15.5m-3.3 76.7c-1.2 3-2 6.4-4.7 8.6-2.9 2.6-6.8 3.2-10.3 4.6l-46.4 16.8c-1.1.3-1.9 1-2.6 1.8 17.6 6.2 35.1 12.9 52.8 19 2.3 1 4.7 1.7 6.5 3.5 3.1 2.6 4.1 6.8 5.5 10.5 6 17 12.3 33.9 18.4 50.8l20.7-56.7c1.6-4.9 6.6-7.2 11.2-8.5l52.2-19-55.8-20.3a12.8 12.8 0 0 1-8-8c-6.8-18.7-13.4-37.4-20.4-56-6.2 17.7-12.8 35.3-19 52.9Z"/>
	<style>
		path { fill: #000; }
		@media (prefers-color-scheme: dark) {
			path { fill: #FFF; }
		}
	</style>
</svg>